# xmcd CD database file
#
# Track frame offsets:
#	150
#	12802
#	24410
#	34435
#	49267
#	62057
#	75990
#	89372
#	103090
#	115460
#	127122
#	138350
#	148742
#	160187
#	172230
#	184312
#	198257
#	212940
#	226855
#	241797
#
# Disc length: 3429 seconds
#
# Revision: 1
# Processed by: cddbd v1.5.1PL0 Copyright (c) Steve Scherf et al.
# Submitted via: CDex 1.51
#
DISCID=1d0d6314
DTITLE=Eliot Garner - Piano bar
DYEAR=2000
DGENRE=Jazz
TTITLE0=Stardust
TTITLE1=I've got you under my skin
TTITLE2=Lady be good
TTITLE3=Don't worry 'bout me
TTITLE4=Love for sale
TTITLE5=Stormy weather
TTITLE6=I'm confessin'
TTITLE7=Stompin' at the savoy
TTITLE8=On the sunny side of the street
TTITLE9=Moonglow
TTITLE10=She's funny that way
TTITLE11=This can't be love
TTITLE12=I can't belive
TTITLE13=Red sails in the sunset
TTITLE14=Somebody loves me
TTITLE15=I can't escape
TTITLE16=Lover come back
TTITLE17=Symphony
TTITLE18=I can't get started with you
TTITLE19=Erroll's blues
EXTD=YEAR: 2000
EXTT0=
EXTT1=
EXTT2=
EXTT3=
EXTT4=
EXTT5=
EXTT6=
EXTT7=
EXTT8=
EXTT9=
EXTT10=
EXTT11=
EXTT12=
EXTT13=
EXTT14=
EXTT15=
EXTT16=
EXTT17=
EXTT18=
EXTT19=
PLAYORDER=
